HIERARCHY
ROOT Hips
{
  OFFSET 0.382225 96.6805 0.598322
  CHANNELS 6 Xposition Yposition Zposition Zrotation Xrotation Yrotation
  JOINT Spine
  {
    OFFSET 10.8089 -0.851416 0
    CHANNELS 3 Zrotation Xrotation Yrotation
    JOINT Spine1
    {
      OFFSET 18.8753 3.80116 0
      CHANNELS 3 Zrotation Xrotation Yrotation
      JOINT Spine2
      {
        OFFSET 13.4073 0.420477 0
        CHANNELS 3 Zrotation Xrotation Yrotation
        JOINT LeftShoulder
        {
          OFFSET 11.8837 -2.73209 -3.78198
          CHANNELS 3 Zrotation Xrotation Yrotation
          JOINT LeftArm
          {
            OFFSET 15.7849 0 -2.35849e-005
            CHANNELS 3 Zrotation Xrotation Yrotation
            JOINT LeftForeArm
            {
              OFFSET 30.3399 0 0
              CHANNELS 3 Zrotation Xrotation Yrotation
              JOINT LeftHand
              {
                OFFSET 26.9751 0 2.45913e-005
                CHANNELS 3 Zrotation Xrotation Yrotation
                End Site
                {
                  OFFSET 8 0 0
                }
              }
            }
          }
        }
        JOINT RightShoulder
        {
          OFFSET 11.8838 -2.7321 3.782
          CHANNELS 3 Zrotation Xrotation Yrotation
          JOINT RightArm
          {
            OFFSET -15.7848 0 -1.07056e-005
            CHANNELS 3 Zrotation Xrotation Yrotation
            JOINT RightForeArm
            {
              OFFSET -30.34 1.02096e-005 -2.53607e-005
              CHANNELS 3 Zrotation Xrotation Yrotation
              JOINT RightHand
              {
                OFFSET -26.9752 2.07668e-005 0
                CHANNELS 3 Zrotation Xrotation Yrotation
                End Site
                {
                  OFFSET -8 0 0
                }
              }
            }
          }
        }
        JOINT Neck
        {
          OFFSET 16.5588 -0.355318 0
          CHANNELS 3 Zrotation Xrotation Yrotation
          JOINT Head
          {
            OFFSET 9.28361 0.364157 0
            CHANNELS 3 Zrotation Xrotation Yrotation
            End Site
            {
              OFFSET 0 0 0
            }
          }
        }
      }
    }
  }
  JOINT LeftUpLeg
  {
    OFFSET -1.44883 -0.531424 -9.00581
    CHANNELS 3 Zrotation Xrotation Yrotation
    JOINT LeftLeg
    {
      OFFSET -42.572 0.0788889 -0.011964
      CHANNELS 3 Zrotation Xrotation Yrotation
      JOINT LeftFoot
      {
        OFFSET -40.1967 0 0
        CHANNELS 3 Zrotation Xrotation Yrotation
				JOINT LeftToe
        {
          OFFSET -10.4538 -16.5779 0.0801563
          CHANNELS 3 Zrotation Xrotation Yrotation
          End Site
          {
            OFFSET -1.0 -1.0 0.0
          }
        }
      }
    }
  }
  JOINT RightUpLeg
  {
    OFFSET -1.44865 -0.531427 9.0058
    CHANNELS 3 Zrotation Xrotation Yrotation
    JOINT RightLeg
    {
      OFFSET 42.5723 -3.24776e-005 0
      CHANNELS 3 Zrotation Xrotation Yrotation
      JOINT RightFoot
      {
        OFFSET 40.1968 0 -1.14003e-005
        CHANNELS 3 Zrotation Xrotation Yrotation
				JOINT RightToe
        {
          OFFSET 10.4538 16.5778 -0.0801573
          CHANNELS 3 Zrotation Xrotation Yrotation
          End Site
          {
            OFFSET -1.0 -1.0 0.0
          }
        }
      }
    }
  }
}
MOTION
Frames:	13
Frame Time:	0.0333333
20.8777 95.9553 -119.154 -30.8286 -83.1841 -122.673 -7.07885 -1.37961 0.36853 17.6577 -0.186165 -0.340748 2.7794 1.93418e-006 1.65929e-005 0.983441 22.0498 70.6073 -21.1922 18.6307 20.4201 1.68448 -15.0672 8.4613 -55.1299 -60.0824 -51.4335 -176.77 13.0632 74.1687 -10.8584 -20.7028 18.9916 -5.4248 -6.86515 -0.256613 -7.80965 -54.6988 0.31401 -23.508 4.63459e-006 -5.90926e-006 -0.070627 -7.24756 7.0226 11.1509 29.0153 -5.34059 -5.4584 -5.81991 2.04804 -0.0357418 -4.17163 5.651 -90 0 0 -163.242 10.5345 -4.78995 -15.4084 -5.52239 0.562573 6.19024 2.80159 1.02527 -90 0 0
21.1807 95.9727 -119.132 -31.8021 -83.0332 -123.659 -7.05955 -1.30348 0.512874 17.6424 -0.185311 -0.339305 2.7794 1.93418e-006 1.65929e-005 1.015 22.1854 70.5905 -21.2921 18.4881 20.4163 1.6374 -15.067 8.43857 -55.3344 -60.0423 -51.6678 -176.786 13.1217 74.2146 -10.9546 -20.6775 18.986 -5.46303 -6.86798 -0.258455 -7.81921 -54.6463 0.330481 -23.508 4.63459e-006 -5.90926e-006 -0.576107 -7.3272 7.09088 11.1077 29.0171 -5.11867 -5.52463 -5.81859 2.03831 0.0916798 -3.99295 5.48045 -90 0 0 -163.253 10.3945 -4.97273 -15.1428 -5.53196 0.603105 5.99985 2.75563 1.22163 -90 0 0
21.4405 95.9826 -119.114 -32.1783 -83.0232 -124.031 -7.14164 -1.38127 0.590946 17.6388 -0.185472 -0.339805 2.7794 1.93418e-006 1.65929e-005 1.01451 22.2442 70.6246 -21.3188 18.4488 20.3909 1.62998 -15.0667 8.43485 -55.5467 -59.9717 -51.8994 -176.779 13.1206 74.1957 -10.976 -20.692 19.0311 -5.49409 -6.86901 -0.259073 -7.98689 -54.7951 0.167383 -23.508 4.63459e-006 -5.90926e-006 -0.916794 -7.31324 7.31271 11.0632 28.9739 -4.95178 -5.66585 -5.81796 2.02047 0.230713 -3.90017 5.32917 -90 0 0 -163.325 10.4061 -5.14185 -14.9387 -5.53946 0.634564 5.8542 2.6968 1.38618 -90 0 0
21.6948 95.9895 -119.124 -31.8709 -82.9845 -123.733 -7.19779 -1.45364 0.667833 17.6288 -0.18603 -0.341127 2.7794 1.93418e-006 1.65929e-005 1.02966 22.2667 70.5917 -21.3946 18.5337 20.5113 1.51693 -15.0683 8.38014 -55.827 -59.818 -52.211 -176.765 13.1032 74.1548 -10.891 -20.7211 19.0576 -5.45643 -6.86964 -0.259477 -7.9729 -54.9097 0.142325 -23.508 4.63459e-006 -5.90926e-006 -1.00803 -7.33922 7.50751 11.1078 28.9646 -4.76495 -5.80102 -5.81741 2.00359 0.339413 -3.88339 5.15894 -90 0 0 -163.275 10.5627 -5.34862 -14.7904 -5.54456 0.657142 5.73005 2.54405 1.54645 -90 0 0
21.8916 95.9969 -119.144 -31.8449 -82.9543 -123.712 -7.28408 -1.45482 0.791057 17.6159 -0.186844 -0.34288 2.7794 1.93418e-006 1.65929e-005 1.03258 22.3079 70.6061 -21.553 18.2523 20.4646 1.74038 -15.064 8.48843 -55.6631 -59.7102 -51.8798 -176.757 13.0974 74.1283 -10.7848 -20.6666 19.1233 -5.45044 -6.86991 -0.259686 -8.0457 -54.899 0.0363545 -23.508 4.63459e-006 -5.90926e-006 -1.0898 -7.38587 7.59103 11.1226 28.9949 -4.61599 -5.87565 -5.81693 1.99256 0.40053 -3.87487 5.01907 -90 0 0 -163.281 10.6313 -5.49342 -14.5993 -5.55122 0.686371 5.56106 2.45692 1.67036 -90 0 0
22.0601 96.0073 -119.165 -31.6814 -82.904 -123.527 -7.38253 -1.45984 0.901095 17.6811 -0.187776 -0.344675 2.7794 1.93418e-006 1.65929e-005 1.02427 22.2217 70.5801 -21.5493 18.2923 20.5543 1.66431 -15.0651 8.45154 -55.7015 -59.6495 -51.9487 -176.765 13.0638 74.1509 -10.6306 -20.6999 19.1992 -5.45664 -6.86988 -0.259718 -8.13835 -54.8945 -0.0634673 -23.508 4.63459e-006 -5.90926e-006 -1.18366 -7.42739 7.59787 11.1752 29.0906 -4.53368 -5.91032 -5.81651 1.98879 0.432693 -3.96532 4.90617 -90 0 0 -163.287 10.7724 -5.59997 -14.3653 -5.55874 0.722181 5.39334 2.32128 1.76781 -90 0 0
22.2082 96.017 -119.161 -31.2967 -82.8646 -123.122 -7.40819 -1.53334 0.992665 17.7155 -0.188688 -0.34612 2.7794 1.93418e-006 1.65929e-005 1.02366 22.2057 70.5726 -21.6018 18.5187 20.6159 1.54917 -15.0671 8.39578 -56.4097 -59.7901 -52.7083 -176.768 12.9942 74.157 -10.5583 -20.7058 19.3077 -5.39718 -6.86959 -0.259591 -8.18663 -55.0034 -0.12664 -23.508 4.63459e-006 -5.90926e-006 -1.27851 -7.43344 7.58348 11.2036 28.969 -4.43094 -5.94283 -5.81617 1.98754 0.480945 -3.84555 4.8105 -90 0 0 -163.291 10.8765 -5.69074 -14.1739 -5.5648 0.751675 5.28082 2.26109 1.85435 -90 0 0
22.3321 96.0282 -119.169 -31.0911 -82.7971 -122.918 -7.4235 -1.55505 1.14337 17.7174 -0.189438 -0.347228 2.7794 1.93418e-006 1.65929e-005 1.0359 22.1819 70.5213 -21.6322 18.2264 20.6252 1.70664 -15.0642 8.47205 -56.0314 -59.6422 -52.3244 -176.788 13.0202 74.223 -10.6489 -20.599 19.3544 -5.44494 -6.86909 -0.259323 -8.03669 -55.1283 -0.0200162 -23.508 4.63459e-006 -5.90926e-006 -1.34493 -7.58406 7.45461 11.1888 29.009 -4.33462 -5.83144 -5.81589 1.98746 0.436211 -3.89895 4.74062 -90 0 0 -163.292 10.8267 -5.76446 -13.9799 -5.57111 0.781563 5.15436 2.29475 1.93356 -90 0 0
22.4202 96.0328 -119.17 -31.0491 -82.7811 -122.858 -7.4856 -1.57938 1.28033 17.7456 -0.190123 -0.348187 2.7794 1.93418e-006 1.65929e-005 1.01308 22.0855 70.5361 -21.6099 18.3487 20.6093 1.66349 -15.065 8.45125 -56.3223 -59.6158 -52.5977 -176.801 12.9867 74.2597 -10.6394 -20.5315 19.4624 -5.46501 -6.86841 -0.258932 -8.13456 -55.0903 -0.0177575 -23.508 4.63459e-006 -5.90926e-006 -1.43804 -7.78746 7.33695 11.2132 29.0009 -4.28997 -5.88618 -5.81568 1.98732 0.482299 -3.87088 4.68015 -90 0 0 -163.315 10.7627 -5.79173 -13.8863 -5.57401 0.795976 5.11776 2.36904 1.98461 -90 0 0
22.4979 96.0341 -119.176 -30.7898 -82.752 -122.605 -7.51515 -1.60619 1.4255 17.745 -0.190904 -0.348877 2.7794 1.93418e-006 1.65929e-005 0.983906 21.9368 70.5388 -21.5133 18.6589 20.6707 1.41917 -15.0694 8.33287 -57.1187 -59.6122 -53.5053 -176.819 12.9105 74.3137 -10.5863 -20.471 19.519 -5.48751 -6.86762 -0.258435 -8.03586 -55.0707 0.0443987 -23.508 4.63459e-006 -5.90926e-006 -1.45604 -7.95629 7.19807 11.2468 29.0033 -4.22548 -5.91672 -5.81555 1.9859 0.508207 -3.87127 4.62532 -90 0 0 -163.293 10.7228 -5.84392 -13.816 -5.57634 0.806744 5.04624 2.42089 2.0371 -90 0 0
22.5507 96.0414 -119.171 -30.365 -82.7624 -122.133 -7.57121 -1.6176 1.51203 17.7642 -0.191747 -0.349422 2.7794 1.93418e-006 1.65929e-005 0.976808 21.831 70.4946 -21.5575 18.4646 20.716 1.56106 -15.067 8.40147 -57.0599 -59.4757 -53.2675 -176.849 12.9216 74.4033 -10.6279 -20.4166 19.4894 -5.46418 -6.86674 -0.257852 -8.05585 -55.091 0.0594595 -23.508 4.63459e-006 -5.90926e-006 -1.5312 -8.0901 6.99168 11.2967 29.0158 -4.24132 -5.95181 -5.81549 1.9817 0.532494 -3.94155 4.5856 -90 0 0 -163.346 10.9985 -5.87284 -13.6389 -5.5816 0.83403 4.96121 2.20703 2.06183 -90 0 0
22.593 96.0535 -119.156 -30.1104 -82.7455 -121.867 -7.57375 -1.70228 1.59233 17.7945 -0.192614 -0.350002 2.7794 1.93418e-006 1.65929e-005 0.985579 21.8078 70.4534 -21.5848 18.2921 20.7627 1.65859 -15.0654 8.44887 -56.9081 -59.3726 -53.0882 -176.846 12.8212 74.3957 -10.6091 -20.4731 19.6241 -5.44221 -6.86583 -0.257199 -8.06851 -55.0134 -0.0273037 -23.508 4.63459e-006 -5.90926e-006 -1.73464 -7.99753 6.86734 11.2319 29.0916 -4.20076 -5.78955 -5.81541 2.00102 0.460278 -4.02993 4.56227 -90 0 0 -163.403 10.9704 -5.88389 -13.4887 -5.58631 0.857066 4.90732 2.26583 2.08708 -90 0 0
22.6245 96.0578 -119.124 -30.0169 -82.7206 -121.768 -7.52217 -1.71618 1.68656 17.8058 -0.193471 -0.350583 2.7794 1.93418e-006 1.65929e-005 0.968175 21.659 70.4144 -21.5759 18.6349 20.8708 1.47714 -15.0689 8.36092 -57.5751 -59.419 -53.8889 -176.85 12.7572 74.4045 -10.6289 -20.4195 19.6805 -5.50001 -6.86493 -0.256495 -7.7854 -55.1278 0.234641 -23.508 4.63459e-006 -5.90926e-006 -1.92587 -7.94517 6.75551 11.2208 29.111 -4.1737 -5.77376 -5.81544 2.00272 0.478882 -4.04552 4.54291 -90 0 0 -163.421 10.9637 -5.9002 -13.4293 -5.58855 0.866231 4.896 2.27888 2.11117 -90 0 0
